<?xml version="1.0" encoding="utf-8"?>
<!-- Generator: Adobe Illustrator 16.0.0, SVG Export Plug-In . SVG Version: 6.00 Build 0)  -->
<!DOCTYPE svg PUBLIC "-//W3C//DTD SVG 1.1//EN" "http://www.w3.org/Graphics/SVG/1.1/DTD/svg11.dtd">
<svg version="1.1" id="Layer_1" xmlns="http://www.w3.org/2000/svg" xmlns:xlink="http://www.w3.org/1999/xlink" x="0px" y="0px"
	 width="256px" height="256px" viewBox="0 0 256 256" enable-background="new 0 0 256 256" xml:space="preserve">
<g id="Layer_2">
	<ellipse fill="#E6E6E6" cx="127.481" cy="248.387" rx="68.65" ry="5.97"/>
	<path fill="#474E5D" d="M90.668,1.644h75.615c10.986,0,19.898,8.91,19.898,19.898v206.946c0,10.988-8.912,19.897-19.898,19.897
		H90.668c-10.991,0-19.898-8.909-19.898-19.897V21.542C70.77,10.553,79.678,1.644,90.668,1.644z"/>
	<rect x="78.729" y="37.461" fill="#F2F2F2" width="99.494" height="175.107"/>
	<path fill="#999999" d="M112.557,19.552c1.096,0,1.99,0.89,1.99,1.99s-0.894,1.99-1.99,1.99c-1.1,0-1.99-0.89-1.99-1.99
		S111.457,19.552,112.557,19.552z"/>
	<path fill="#999999" d="M122.506,19.552h19.898c1.097,0,1.99,0.89,1.99,1.99s-0.895,1.99-1.99,1.99h-19.898
		c-1.1,0-1.99-0.89-1.99-1.99C120.517,20.442,121.406,19.552,122.506,19.552z"/>
	<circle fill="#FFFFFF" cx="128.476" cy="230.429" r="8.248"/>
</g>
</svg>
